<?xml version="1.0" encoding="UTF-8"?>
<svg id="_レイヤー_1" xmlns="http://www.w3.org/2000/svg" version="1.1" viewBox="0 0 409.44 186.69">
  <!-- Generator: Adobe Illustrator 30.0.0, SVG Export Plug-In . SVG Version: 2.1.1 Build 123)  -->
  <defs>
    <style>
      .st0 {
        fill: #206cb6;
      }
    </style>
  </defs>
  <g>
    <path class="st0" d="M232.4,106.38c.54,3.13.53,6.17.09,9.07-.57,3.67.63,7.44,3.33,9.98,7.96,7.49,12.46,18.62,10.82,30.75-2.15,15.87-15.13,28.52-31.03,30.28-21.36,2.36-39.44-14.32-39.44-35.23v-40.05c0-16.53,14.11-29.75,30.93-28.25,12.64,1.13,23.16,10.91,25.3,23.44Z"/>
    <path class="st0" d="M3.4,89.62h5.66c2.08,0,3.77,1.69,3.77,3.77v65.14c0,5.84,4.73,10.58,10.57,10.58h31.14c2.08,0,3.77,1.69,3.77,3.77v5.31c0,2.08-1.69,3.77-3.77,3.77H18.49c-10.42,0-18.86-8.45-18.86-18.86v-69.71c0-2.08,1.69-3.77,3.77-3.77Z"/>
    <path class="st0" d="M79.35,131.3c0-26.83,14.58-43.18,39.5-43.18,24.92,0,39.5,16.35,39.5,43.18v46.89c0,2.08-1.69,3.77-3.77,3.77h-5.66c-2.08,0-3.77-1.69-3.77-3.77v-11.6c0-5.84-4.73-10.58-10.57-10.58h-31.46c-5.84,0-10.57,4.74-10.57,10.58v11.6c0,2.08-1.69,3.77-3.77,3.77h-5.66c-2.08,0-3.77-1.69-3.77-3.77v-46.89ZM134.58,143.03c5.84,0,10.57-4.74,10.57-10.58v-1.15c0-18.97-9.6-30.33-26.29-30.33-16.7,0-26.29,11.36-26.29,30.33v1.15c0,5.84,4.73,10.58,10.57,10.58h31.46Z"/>
    <path class="st0" d="M283.66,89.62h42.3c1.04,0,1.89.84,1.89,1.89v9.08c0,1.04-.84,1.89-1.89,1.89h-42.67c-2.92,0-5.29,2.37-5.29,5.29v15.25c0,2.92,2.37,5.29,5.29,5.29h42.67c1.04,0,1.89.84,1.89,1.89v9.08c0,1.04-.84,1.89-1.89,1.89h-42.68c-2.92,0-5.28,2.37-5.28,5.28v17.38c0,2.92,2.37,5.29,5.29,5.29h42.67c1.04,0,1.89.84,1.89,1.89v9.08c0,1.04-.84,1.89-1.89,1.89h-42.3c-10.42,0-18.86-8.45-18.86-18.86v-54.62c0-10.42,8.45-18.86,18.86-18.86Z"/>
    <path class="st0" d="M354.52,89.62h5.66c2.08,0,3.77,1.69,3.77,3.77v65.14c0,5.84,4.73,10.58,10.57,10.58h31.14c2.08,0,3.77,1.69,3.77,3.77v5.31c0,2.08-1.69,3.77-3.77,3.77h-36.06c-10.42,0-18.86-8.45-18.86-18.86v-69.71c0-2.08,1.69-3.77,3.77-3.77Z"/>
  </g>
  <g>
    <path class="st0" d="M27.93,58.89l-4.61-17.21,8.71-2.33.59,2.19-6.52,1.75,4.03,15.02-2.19.59Z"/>
    <path class="st0" d="M50,40.09c.74-.22,1.04-.46,1.32-.75.15-.18.26-.26.39-.29s.3,0,.52.09c.66.19,1.56.71,2.16,1.13.19.12.29.26.32.41.04.16,0,.33-.16.56-.2.3-.39.62-.53,1.18-.56,2.48-1.23,4.91-2.21,7.23,1.28.59,2.49,1.24,3.46,1.91.13.08.21.19.25.32.03.1,0,.25-.07.38-.25.53-.84,1.56-1.19,2.04-.08.1-.17.18-.28.21-.08.02-.19,0-.32-.08-.8-.57-2.1-1.34-3.14-1.88-1.92,3.52-4.07,6.21-6.61,8.56-.2.19-.38.34-.59.4-.16.04-.33,0-.55-.11-1-.46-1.81-.62-2.79-.7,3.49-3.06,5.6-5.58,7.74-9.43-1.19-.56-2.55-1.06-4.34-1.49.41-.77.78-1.58,1.24-2.27.08-.13.16-.23.29-.27.08-.02.17.01.28.04,1.04.2,2.37.67,3.86,1.23.83-1.92,1.36-3.84,1.73-5.89l-6.38,1.75c-1.43,3.26-2.66,5.47-4.06,7.23-.15.17-.28.32-.46.36-.13.03-.3.02-.46-.08-.77-.3-1.53-.49-2.47-.64,2.89-3.79,4.23-6.67,5.26-9.99.47-1.61.63-2.39.59-3.54.96.09,2.41.19,3.35.5.23.05.35.19.39.34.05.18-.03.42-.18.6-.19.21-.32.47-.4.68-.11.42-.2.71-.47,1.5l4.52-1.26ZM52.46,35.66c.1-.14.21-.14.4-.05.96.42,2.15,1.22,3.16,2.15.14.13.18.26.03.43l-.88,1.08c-.15.18-.28.18-.46.03-1.08-1-2.15-1.77-3.37-2.34l1.13-1.31ZM54.33,33.4c.13-.14.21-.14.4-.05,1.14.48,2.33,1.28,3.13,2.05.14.13.21.28.04.49l-.83,1.06c-.17.21-.32.16-.46.03-.98-.94-2.06-1.71-3.34-2.32l1.06-1.26Z"/>
    <path class="st0" d="M72.06,35.23c.28-1.48.36-2.15.3-3.42,1.4.19,2.9.56,3.64.94.21.09.32.23.36.39.04.21-.02.44-.16.64-.3.39-.43.78-.8,2-.58,2.12-1.17,4.1-1.87,5.81,1.71.84,2.55,1.34,4.59,2.73.13.11.21.2.23.33.02.1,0,.22-.06.37-.38.79-.78,1.48-1.2,2.2-.08.15-.17.23-.27.25-.13.03-.25-.03-.41-.16-1.54-1.2-2.8-2-4.15-2.72-2.18,4.37-4.55,7.56-7.18,10.06-.18.18-.37.3-.56.34s-.35.02-.53-.08c-.89-.46-1.85-.86-2.65-.94,3.56-3.25,5.89-6.28,8.01-10.67-1.91-.88-3.39-1.43-5.75-2.02.55-1.13,1-2.07,1.26-2.51.06-.1.13-.16.23-.19.1-.02.22,0,.33.04,1.5.39,3.36,1.03,5.13,1.77.75-1.96,1.1-3.27,1.52-5.16Z"/>
    <path class="st0" d="M89.55,30.83c0-.81-.05-1.86-.24-2.97,1.42.05,2.19.11,3.31.33.28.03.47.22.51.45.02.13,0,.27-.12.43-.2.39-.29.7-.35,1.09-.16,1.14-.25,2.16-.4,3.32.7-.2,1.48-.36,2.03-.46,2.47-.43,4.1,1.03,4.65,4.21.53,3.11.6,6.65.04,8.7-.47,1.82-1.6,2.82-3.12,3.09-1.26.22-2.04.24-2.65.16-.33-.05-.53-.26-.6-.66-.22-.83-.4-1.56-.92-2.36,1.26.24,2.18.22,2.99.08.87-.15,1.21-.53,1.44-1.69.3-1.57.34-4.15-.1-6.71-.32-1.87-.76-2.39-1.92-2.19-.63.11-1.43.33-2.18.57-.86,5.35-1.74,9.25-3.15,13.28-.1.37-.3.46-.64.35-.51-.15-1.65-.61-2.01-.85-.15-.11-.25-.2-.28-.36-.01-.08,0-.19.05-.31,1.47-4.02,2.36-7.05,3.03-11.15-1,.33-1.81.64-2.5.89-.66.25-1.05.48-1.37.67-.34.19-.67.2-.9-.2-.34-.57-.79-1.46-1.28-2.57,1.16-.2,2.3-.48,3.44-.78,1.09-.3,2.04-.6,3.03-.93.16-1.57.19-2.53.22-3.45ZM100.55,30.75c.17-.14.31-.11.52.05,2.08,1.38,4.06,3.29,5.47,5.65.15.22.14.35-.01.54-.37.5-1.26,1.3-1.75,1.66-.24.18-.51.19-.64-.11-1.53-2.58-3.29-4.61-5.49-6.08.58-.56,1.25-1.22,1.9-1.71Z"/>
    <path class="st0" d="M117.67,40.11c.31,2.44,1.49,3.26,3.96,2.94,3.1-.4,4.66-1.81,4.35-4.2-.19-1.48-.72-2.65-3-4.52,1.07,0,1.64-.21,2.68-.51.18-.08.39-.08.57.03,1.63,1.19,2.66,2.89,2.89,4.69.48,3.76-2.27,6.6-6.82,7.18-4.68.6-6.94-1.26-7.44-5.13-.07-.56-.09-1.31-.14-2.51-1.62-.03-2.71-.14-3.7-.33-.19-.03-.29-.15-.36-.47-.19-.81-.32-1.63-.37-2.46,1.66.38,2.89.52,4.42.48,0-1,0-2.75-.04-3.85-1.88,0-2.86-.04-3.91-.25-.33-.04-.45-.16-.48-.39-.11-.63-.27-1.5-.4-2.45,1.87.35,3.18.43,4.92.39.01-1.56,0-2.29-.05-3.09-.04-.75-.14-1.52-.31-2.22,1.24,0,2.66.17,3.27.33.39.08.63.3.66.53.02.18-.04.35-.15.53-.16.21-.25.57-.33,1.2-.05.63-.1,1.55-.1,2.55,1.07-.06,2.14-.28,3.23-.58.19-.02.28.1.31.28.11.63.2,1.37.2,1.99.04.29-.06.38-.37.45-1.15.28-2.33.46-3.5.59-.04.95-.07,2.79-.09,3.87,1.41-.15,2.49-.32,3.75-.56.34-.1.43,0,.46.24.06.48.13,1.44.12,2.01.01.32-.05.44-.32.47-1.31.28-2.68.45-4.04.6,0,1.05.06,1.69.12,2.17Z"/>
    <path class="st0" d="M139.84,26.9l1.59,17.75-8.98.81-.2-2.26,6.75-.61-1.39-15.49,2.23-.2Z"/>
    <path class="st0" d="M153.78,36.33c.17,2.45,1.3,3.34,3.77,3.17,3.11-.21,4.76-1.53,4.6-3.93-.1-1.49-.56-2.69-2.73-4.69,1.07.06,1.65-.11,2.7-.35.18-.07.4-.05.57.07,1.56,1.28,2.48,3.04,2.61,4.85.26,3.78-2.66,6.45-7.24,6.76-4.71.32-6.85-1.67-7.12-5.56-.04-.56-.01-1.31.01-2.52-1.61-.13-2.69-.3-3.67-.55-.19-.04-.28-.17-.33-.49-.14-.82-.22-1.64-.22-2.47,1.64.48,2.86.69,4.38.74.07-1,.16-2.74.19-3.84-1.88-.11-2.85-.21-3.88-.48-.32-.06-.44-.18-.46-.42-.07-.64-.18-1.51-.25-2.47,1.85.46,3.14.62,4.89.68.11-1.56.14-2.29.13-3.09,0-.75-.05-1.52-.18-2.24,1.24.08,2.64.33,3.25.53.38.11.61.33.63.57.01.19-.06.35-.18.52-.17.2-.28.56-.4,1.18-.09.62-.19,1.54-.25,2.53,1.07,0,2.16-.15,3.26-.38.19-.01.27.11.29.3.07.64.12,1.38.08,2,.02.29-.08.38-.4.43-1.16.21-2.36.32-3.53.38-.1.94-.24,2.78-.32,3.85,1.41-.07,2.5-.17,3.77-.34.34-.08.43.02.45.26.03.48.05,1.44,0,2.01,0,.32-.08.43-.34.45-1.32.2-2.71.29-4.07.36-.06,1.05-.04,1.69-.01,2.17Z"/>
    <path class="st0" d="M191.88,40.34c-.2.46-.27.65-.46.66-.13,0-.3-.1-.62-.3-5.19-3.13-8.42-7.61-9.79-12.49-1.25,5.68-4.48,10.16-9.27,13.08-.29.17-.47.28-.61.28-.19,0-.3-.18-.55-.63-.47-.73-1.03-1.28-1.6-1.74,6.92-3.46,10.13-10.24,9.86-17.72-.06-1.17-.12-2.29-.29-3.47,1.04.02,2.32.12,3.29.22.35.04.51.2.52.41,0,.29-.12.46-.25.68-.15.27-.19.91-.16,1.77-.02.32,0,.64,0,.96,1.38,7.79,4.89,12.87,11.37,16.16-.6.61-1.08,1.34-1.43,2.13Z"/>
    <path class="st0" d="M204.23,17.91c1.73.02,2.53-.02,2.69-.01.24,0,.27.03.26.32,0,.16-.07.93-.09,2.54l-.05,3.31c-.02,1.63.02,2.38.02,2.54,0,.29-.03.32-.27.32-.16,0-.96-.07-2.69-.09l-4.32-.06-.13,8.65c-.05,3.69-.03,5.5-.03,5.69,0,.27-.03.29-.3.29l-2.27-.03c-.27,0-.29-.03-.29-.3,0-.19.08-2,.14-5.69l.17-11.57c.05-3.71.03-5.58.03-5.74,0-.29.03-.32.3-.32.19,0,1.2.07,3.15.1l3.68.05ZM204.45,23.31l-4.61-.07-.02,1.6,4.61.07.02-1.6ZM199.88,19.85l-.02,1.58,4.61.07.02-1.58-4.61-.07ZM203.19,39.62c-.27,0-.29-.03-.29-.32,0-.16.07-.88.12-4.83l.03-2.35c.03-2.35,0-3.15,0-3.34,0-.27.03-.29.3-.29.19,0,.83.07,2.85.1l3.6.05c2.03.03,2.67-.01,2.85-.01.27,0,.29.03.29.3,0,.16-.07.96-.09,2.88l-.04,2.64c-.06,3.87-.01,4.6-.02,4.73,0,.27-.03.29-.3.29l-1.92-.03c-.27,0-.29-.03-.29-.3v-.83s-4.87-.07-4.87-.07l-.02,1.1c0,.29-.03.32-.32.32l-1.89-.03ZM210.34,36.27l.03-1.87-4.88-.07-.03,1.87,4.88.07ZM205.51,32.41l4.88.07.03-1.79-4.88-.07-.03,1.79ZM219.17,32.9c-.03,1.87.05,4.01.03,5.32-.02,1.28-.21,1.92-.81,2.45-.57.5-1.32.7-3.82.67-.8-.01-.8.02-.95-.84-.15-.75-.35-1.42-.61-1.96.83.12,1.68.16,2.24.17.88.01,1.1-.22,1.11-1.03l.16-10.66-4.37-.06c-2.08-.03-2.78.01-2.94.01-.27,0-.29-.03-.29-.32,0-.16.06-.77.09-2.35l.05-3.69c.02-1.55-.02-2.19-.02-2.35,0-.29.03-.32.3-.32.16,0,.85.07,2.93.1l3.92.06c2.08.03,2.8-.01,2.96-.01.27,0,.29.03.29.33,0,.16-.07,1.25-.11,3.52l-.16,10.98ZM216.53,25.09l.02-1.6-4.93-.07-.02,1.6,4.93.07ZM211.67,20.02l-.02,1.58,4.93.07.02-1.57-4.93-.07Z"/>
    <path class="st0" d="M228.45,25.12c.28.15.41.32.4.53,0,.13-.07.26-.16.39-.26.41-.48.88-.61,1.38-.34,1.34-.72,3.3-.92,4.82,2.59-2.34,5.89-3.89,9.14-3.71,3.89.22,6.08,2.62,5.88,6.06-.17,2.91-2.01,4.73-4.36,5.74-1.84.81-4.62,1.29-6.92,1.45-.59.05-.83,0-1.05-.41-.45-.94-.89-1.68-1.68-2.37,2.99-.02,5.58-.38,7.41-1.08,2.21-.81,3.28-2.14,3.37-3.85.08-1.44-.75-2.8-3.04-2.93-2.34-.13-5.25,1.23-7.9,3.62-.51.45-.88.89-1.23,1.4-.17.26-.28.25-.62.15-.6-.25-1.23-.52-1.77-.82-.26-.12-.36-.18-.34-.56.34-3.08.86-6.21,1.32-8.57.15-.79.32-1.48.38-2.39,1.02.35,2.12.74,2.71,1.12ZM229.5,18.41c.14-.13.3-.2.51-.1,1.93.89,3.52,1.99,5.04,3.47.13.11.18.2.17.3,0,.08-.06.18-.15.31-.38.54-.98,1.28-1.46,1.79-.11.13-.22.2-.3.2-.11,0-.18-.06-.31-.2-1.42-1.39-3.13-2.72-5.18-3.77.69-.92,1.24-1.59,1.69-1.99Z"/>
    <path class="st0" d="M253.13,21.16c.44.15.62.3.59.57-.03.29-.22.6-.35.85-.17.36-.35,1.17-.68,3.21-.65,4.07-1.04,6.77-1.37,10.26-.25,2.69,0,3.33,2.13,3.53,2.36.22,6.19-.87,9.76-4.02.01,1.02.17,1.92.37,2.58.11.3.17.5.15.66-.02.24-.15.44-.61.78-3.12,2.36-6.99,3.37-10.44,3.04-3.4-.32-4.86-1.83-4.48-5.9.42-4.47,1.02-8.28,1.45-11.46.2-1.56.44-3.26.19-4.89,1.21.25,2.47.5,3.27.79Z"/>
    <path class="st0" d="M275.63,25.12c-.27-.82-.46-1.41-1.05-2.32,1.33-.07,2.49-.11,3.2-.02.69.09.88.3.83.67-.03.24-.09.5-.07.75.04.33.1.71.25,1.38.21.84.37,1.5.62,2.26,2.48-.24,4.3-.58,5.74-.93.28-.1.36-.06.48.25.2.54.32,1.49.4,2.13.04.27-.08.39-.27.42-1.33.31-2.93.59-5.46.86.83,2.1,1.92,4.07,3.32,6.12.18.24.4.45.61.67.14.15.24.25.22.38-.02.19-.12.31-.22.43-.24.43-.88,1.21-1.26,1.59-.25.26-.39.35-.58.33-.13-.02-.2-.08-.39-.27-.31-.28-.53-.5-1-.83-1.6-1.12-3.48-1.83-5.43-2.08-2.75-.36-4.52.25-4.74,1.92-.26,1.99,2.04,3.12,6.2,3.66,1.3.17,2.88.24,4.28.18-.24,1.05-.66,2.2-.92,2.76-.11.25-.23.29-.55.31-.49.02-1.85-.05-2.96-.19-6.24-.81-9.35-3.23-8.89-6.73.39-3.02,3.26-4.8,7.62-4.24,2.14.28,3.58.79,4.62,1.33-1.14-1.39-2.01-2.98-2.81-5.13-1.7.07-3.27.09-5.19,0-.72-.04-1.95-.12-2.61-.2-.24-.03-.32-.2-.36-.53-.16-.86-.22-1.43-.3-2.46,1.34.23,2.43.34,3.31.4,1.12.09,2.46.1,4.25.04-.33-1.01-.6-1.83-.89-2.89Z"/>
    <path class="st0" d="M303.4,31.89c-1.36,4.38-3.15,8.3-5.2,10.8-1.46,1.79-3.01,2.61-4.98,2.28-2.31-.39-4.24-3.26-3.52-7.55.42-2.53,1.91-4.77,4.12-6.35,2.58-1.84,5.56-2.53,9.12-1.94,6.31,1.06,9.37,5.58,8.49,10.83-.82,4.9-4.1,7.52-9.71,8.23-.58.06-.8-.08-1.05-.67-.21-.5-.66-1.19-1.56-1.97,4.62-.31,8.43-1.56,9.27-6.54.53-3.14-1.34-6.51-4.87-7.1l-.11-.02ZM295.42,33.18c-1.5,1.21-2.59,2.84-2.87,4.53-.41,2.42.34,3.93,1.16,4.07.68.12,1.32-.13,2.24-1.28,1.52-1.94,3.34-5.53,4.37-8.96-1.9.06-3.5.55-4.9,1.64Z"/>
    <path class="st0" d="M319.07,42.29c-2.35-.5-3.17-.62-3.32-.65-.26-.06-.28-.09-.23-.32l.54-2.53c.05-.23.08-.25.34-.2.16.03.95.26,3.3.76l15.73,3.36c2.35.5,3.17.62,3.32.66.26.06.28.09.23.32l-.54,2.53c-.05.23-.08.26-.34.2-.16-.03-.95-.26-3.3-.76l-15.73-3.36Z"/>
    <path class="st0" d="M340.94,58.09c-.26-.07-.28-.1-.22-.33.05-.18.27-.81,1.19-4.36l.48-1.86c.52-2.02.66-2.73.7-2.91.07-.26.1-.28.36-.21.18.05.84.27,2.85.8l3.72.97c2.01.52,2.72.65,2.88.69.28.07.3.11.24.37-.04.15-.28.87-.71,2.52l-.56,2.15c-.92,3.54-1.04,4.2-1.08,4.36-.07.28-.11.3-.39.23l-1.99-.52c-.26-.07-.28-.1-.2-.38l.31-1.19-4.91-1.28-.34,1.29c-.06.23-.09.25-.35.18l-1.99-.52ZM345.67,47.01c-2.35-.61-3.16-.77-3.32-.81-.23-.06-.25-.09-.18-.35l.48-1.86c.07-.26.1-.28.33-.22.15.04.94.3,3.29.91l3.74.97c.77-1.07,1.26-1.88,1.72-2.7.2-.36.35-.71.54-1.24.66.31,1.49.72,2.11,1.1.21.14.35.26.3.44-.05.18-.18.28-.31.36-.2.11-.36.32-.49.51-.43.69-.87,1.35-1.5,2.15,2.01.52,2.78.67,2.93.71.26.07.28.1.21.36l-.48,1.86c-.07.26-.1.28-.36.21-.16-.04-.94-.3-3.27-.9l-5.76-1.5ZM344.2,54.85l4.9,1.28.92-3.54-4.9-1.28-.92,3.54ZM347.94,40.17c-2.27-.59-3.03-.73-3.19-.77-.26-.07-.28-.1-.21-.36l.47-1.81c.07-.28.11-.3.36-.24.16.04.89.29,3.16.88l1.16.3.12-.47c.24-.93.38-1.56.4-2.19.92.27,1.7.55,2.56.86.25.09.38.24.35.34-.05.18-.16.29-.31.47-.12.16-.23.46-.43,1.21l-.11.44,1.32.34c2.25.58,3.01.73,3.16.77.26.07.28.1.2.38l-.47,1.81c-.07.26-.1.28-.36.21-.16-.04-.89-.29-3.14-.87l-5.06-1.32ZM346.29,44.3c-.41,0-.43-.06-.4-.38.09-1,.13-2.09.02-3.03-.03-.31.02-.3.38-.31l1.52-.02c.33,0,.4.05.44.33.1.88.16,2.03.09,3.06-.02.3-.07.28-.41.31l-1.64.04ZM365.38,40.73c.31.08.55.11.67.09.17-.01.28-.01.41.02.21.05.39.21.88,1.06.38.76.4,1.01.34,1.22-.05.21-.19.31-.35.4-.21.08-.4.28-.79.82-1.27,1.8-2.45,3.37-3.81,5,2.01,3.06,2.13,4.75,1.58,6.87-.7,2.69-2.59,3.71-5.69,3.21q-.82-.13-.73-1.02c.07-.78-.04-1.42-.28-1.89,2.41.68,3.74.34,4.14-1.19.42-1.63.16-3.05-1.92-6.3,1.63-1.92,3.02-3.85,4.42-6.08l-3.61-.94-3.77,14.48c-.9,3.46-1.32,5.29-1.35,5.42-.07.26-.1.28-.36.21l-2.07-.54c-.28-.07-.3-.11-.24-.37.04-.15.53-1.85,1.45-5.36l2.91-11.17c.92-3.54,1.32-5.29,1.37-5.47.07-.26.1-.28.38-.2.15.04.84.27,2.28.65l4.13,1.08Z"/>
  </g>
</svg>