<?xml version="1.0" encoding="UTF-8"?>
<svg id="_レイヤー_1" data-name="レイヤー_1" xmlns="http://www.w3.org/2000/svg" xmlns:xlink="http://www.w3.org/1999/xlink" version="1.1" viewBox="0 0 409.44 186.69">
  <!-- Generator: Adobe Illustrator 30.0.0, SVG Export Plug-In . SVG Version: 2.1.1 Build 123)  -->
  <defs>
    <style>
      .st0, .st1 {
        fill: #206cb6;
      }

      .st1 {
        font-family: ATC-504620466f6e745f424f-83pv-RKSJ-H, ATC-504620466f6e745f424f;
        font-size: 26.57px;
      }
    </style>
    <path id="path" d="M-57.91,80.2L30.31,60.16c.07-.02.14-.03.21-.05,107.23-31.44,221.08-32.35,328.8-2.64l101.41,22.73"/>
  </defs>
  <g>
    <path class="st0" d="M232.71,102.41c.53,3.11.53,6.14.08,9.02-.56,3.65.63,7.4,3.31,9.93,7.92,7.45,12.39,18.52,10.76,30.58-2.13,15.79-15.05,28.37-30.86,30.12-21.24,2.35-39.22-14.24-39.22-35.04v-39.83c0-16.44,14.04-29.59,30.76-28.09,12.57,1.12,23.03,10.85,25.16,23.31Z"/>
    <path class="st0" d="M4.97,85.74h5.63c2.07,0,3.75,1.68,3.75,3.75v64.78c0,5.81,4.7,10.52,10.51,10.52h30.97c2.07,0,3.75,1.68,3.75,3.75v5.28c0,2.07-1.68,3.75-3.75,3.75H19.98c-10.36,0-18.76-8.4-18.76-18.76v-69.33c0-2.07,1.68-3.75,3.75-3.75Z"/>
    <path class="st0" d="M80.51,127.19c0-26.68,14.5-42.94,39.28-42.94s39.29,16.26,39.29,42.94v46.64c0,2.07-1.68,3.75-3.75,3.75h-5.63c-2.07,0-3.75-1.68-3.75-3.75v-11.54c0-5.81-4.7-10.52-10.51-10.52h-31.28c-5.8,0-10.51,4.71-10.51,10.52v11.54c0,2.07-1.68,3.75-3.75,3.75h-5.63c-2.07,0-3.75-1.68-3.75-3.75v-46.64ZM135.43,138.86c5.8,0,10.51-4.71,10.51-10.52v-1.14c0-18.86-9.54-30.16-26.15-30.16s-26.15,11.29-26.15,30.16v1.14c0,5.81,4.7,10.52,10.51,10.52h31.28Z"/>
    <path class="st0" d="M283.68,85.74h42.07c1.04,0,1.88.84,1.88,1.88v9.03c0,1.04-.84,1.88-1.88,1.88h-42.43c-2.91,0-5.26,2.36-5.26,5.26v15.17c0,2.91,2.36,5.26,5.26,5.26h42.43c1.04,0,1.88.84,1.88,1.88v9.03c0,1.04-.84,1.88-1.88,1.88h-42.44c-2.9,0-5.25,2.35-5.25,5.25v17.29c0,2.91,2.36,5.26,5.26,5.26h42.43c1.04,0,1.88.84,1.88,1.88v9.03c0,1.04-.84,1.88-1.88,1.88h-42.07c-10.36,0-18.76-8.4-18.76-18.76v-54.32c0-10.36,8.4-18.76,18.76-18.76Z"/>
    <path class="st0" d="M354.16,85.74h5.63c2.07,0,3.75,1.68,3.75,3.75v64.78c0,5.81,4.7,10.52,10.51,10.52h30.97c2.07,0,3.75,1.68,3.75,3.75v5.28c0,2.07-1.68,3.75-3.75,3.75h-35.86c-10.36,0-18.76-8.4-18.76-18.76v-69.33c0-2.07,1.68-3.75,3.75-3.75Z"/>
  </g>
  <text>
    <textPath startOffset="9.57%" xlink:href="#path"><tspan class="st1"><tspan x="0" y="0">「ダメかも」も人間らしさの一部</tspan></tspan>
    </textPath></text>
</svg>